<svg width="2000" height="2000" viewBox="0 0 2000 2000" fill="none" xmlns="http://www.w3.org/2000/svg">
<circle cx="1000" cy="1000" r="1000" fill="#F1A438"/>
<path d="M811 446V364H858.426C869.446 364 877.795 365.859 883.474 369.577C889.238 373.21 892.12 378.659 892.12 385.926C892.12 390.573 890.976 394.248 888.687 396.952C886.399 399.571 883.135 401.515 878.897 402.782C874.743 404.049 869.827 404.852 864.148 405.19L864.656 404.303C868.81 404.387 872.709 404.683 876.354 405.19C880.084 405.697 883.347 406.626 886.144 407.978C888.941 409.33 891.145 411.231 892.756 413.682C894.366 416.047 895.172 419.174 895.172 423.06C895.172 428.13 893.815 432.354 891.103 435.734C888.39 439.029 884.618 441.522 879.787 443.212C874.955 444.902 869.361 445.831 863.003 446H811ZM827.911 432.059H861.223C866.563 432.059 870.675 431.214 873.557 429.524C876.439 427.75 877.88 424.961 877.88 421.159C877.88 418.371 877.032 416.343 875.337 415.076C873.641 413.808 871.395 413.048 868.598 412.794C865.801 412.456 862.791 412.287 859.57 412.287H827.911V432.059ZM827.911 398.726H857.79C863.131 398.726 867.242 397.966 870.124 396.445C873.006 394.84 874.447 392.136 874.447 388.334C874.447 384.532 873.006 381.87 870.124 380.349C867.242 378.744 863.427 377.941 858.68 377.941H827.911V398.726Z" fill="black"/>
<path d="M927.121 411.781V431.932H990.567V446H910.21V364H990.44V378.068H927.121V398.473H978.997V411.781H927.121Z" fill="black"/>
<path d="M1024.84 411.781V431.932H1088.29V446H1007.93V364H1088.16V378.068H1024.84V398.473H1076.72V411.781H1024.84Z" fill="black"/>
<path d="M1105.65 446V364H1161.47C1167.82 364 1173.33 364.887 1178 366.662C1182.74 368.351 1186.43 371.055 1189.06 374.773C1191.69 378.406 1193 383.095 1193 388.841C1193 392.727 1192.32 396.023 1190.97 398.726C1189.61 401.43 1187.7 403.627 1185.24 405.317C1182.87 407.007 1180.12 408.316 1176.98 409.246C1173.84 410.091 1170.49 410.64 1166.93 410.893L1165.15 409.879C1171.09 409.964 1175.96 410.471 1179.78 411.4C1183.59 412.245 1186.43 413.851 1188.3 416.216C1190.25 418.498 1191.22 421.92 1191.22 426.482V446H1174.31V427.623C1174.31 424.497 1173.76 422.089 1172.66 420.399C1171.55 418.624 1169.56 417.399 1166.68 416.723C1163.88 416.047 1159.81 415.709 1154.47 415.709H1122.56V446H1105.65ZM1122.56 402.529H1161.47C1166.21 402.529 1169.82 401.388 1172.27 399.107C1174.82 396.825 1176.09 393.741 1176.09 389.855C1176.09 386.137 1174.82 383.307 1172.27 381.363C1169.82 379.42 1166.21 378.448 1161.47 378.448H1122.56V402.529Z" fill="black"/>
<path d="M743.08 1429.11H853.343V1449.12H743.08V1429.11ZM784.959 1447.75H811.464V1496.51H784.959V1447.75Z" fill="black"/>
<path d="M890.409 1468.07V1476.5H970.986V1496.51H863.904V1429.11H970.774V1449.12H890.409V1457.54H956.143V1468.07H890.409Z" fill="black"/>
<path d="M1108.3 1468.39C1107.94 1475.06 1105.51 1480.64 1100.98 1485.14C1096.46 1489.63 1089.78 1493 1080.94 1495.25C1072.18 1497.49 1061.08 1498.62 1047.65 1498.62C1037.4 1498.62 1028.22 1498.06 1020.09 1496.93C1011.96 1495.88 1005.03 1494.05 999.306 1491.46C993.581 1488.79 989.199 1485.17 986.16 1480.61C983.12 1476.04 981.601 1470.29 981.601 1463.34C981.601 1456.38 983.12 1450.59 986.16 1445.96C989.199 1441.25 993.581 1437.53 999.306 1434.79C1005.03 1431.99 1011.96 1429.98 1020.09 1428.79C1028.22 1427.6 1037.4 1427 1047.65 1427C1061.08 1427 1072.21 1428.23 1081.05 1430.69C1089.88 1433.07 1096.56 1436.62 1101.09 1441.32C1105.61 1446.03 1108.05 1451.75 1108.4 1458.49H1080.84C1079.99 1456.24 1078.43 1454.28 1076.17 1452.59C1073.91 1450.84 1070.52 1449.47 1065.99 1448.49C1061.47 1447.5 1055.36 1447.01 1047.65 1447.01C1038.61 1447.01 1031.25 1447.57 1025.6 1448.7C1019.95 1449.75 1015.81 1451.47 1013.2 1453.86C1010.58 1456.24 1009.27 1459.4 1009.27 1463.34C1009.27 1466.92 1010.58 1469.83 1013.2 1472.08C1015.81 1474.32 1019.95 1475.97 1025.6 1477.03C1031.25 1478.08 1038.61 1478.61 1047.65 1478.61C1055.36 1478.61 1061.44 1478.15 1065.89 1477.24C1070.41 1476.32 1073.8 1475.1 1076.07 1473.55C1078.33 1471.94 1079.88 1470.22 1080.73 1468.39H1108.3Z" fill="black"/>
<path d="M1144.92 1452.38H1219.56V1472.39H1144.92V1452.38ZM1216.59 1429.11H1243.09V1496.51H1216.59V1429.11ZM1122.23 1429.11H1148.73V1496.51H1122.23V1429.11Z" fill="black"/>
<path d="M726.871 1625C717.683 1625 709.236 1624.44 701.532 1623.31C693.898 1622.26 687.254 1620.44 681.6 1617.84C676.016 1615.17 671.669 1611.55 668.559 1606.99C665.52 1602.43 664 1596.67 664 1589.72C664 1582.77 665.555 1576.97 668.665 1572.34C671.775 1567.64 676.228 1563.91 682.024 1561.18C687.89 1558.37 694.852 1556.37 702.91 1555.17C711.039 1553.98 720.086 1553.38 730.052 1553.38C743.128 1553.38 754.084 1554.58 762.919 1556.96C771.825 1559.35 778.61 1562.76 783.275 1567.18C787.94 1571.53 790.449 1576.73 790.803 1582.77H763.237C762.389 1581.22 760.834 1579.75 758.572 1578.34C756.31 1576.87 752.917 1575.68 748.394 1574.76C743.87 1573.85 737.756 1573.39 730.052 1573.39C721.005 1573.39 713.654 1573.96 707.999 1575.08C702.345 1576.13 698.21 1577.85 695.595 1580.24C692.979 1582.63 691.672 1585.79 691.672 1589.72C691.672 1593.16 693.015 1596 695.701 1598.25C698.387 1600.5 702.698 1602.18 708.635 1603.3C714.573 1604.43 722.418 1604.99 732.172 1604.99C739.028 1604.99 744.966 1604.71 749.984 1604.15C755.073 1603.51 759.667 1602.57 763.767 1601.3C767.937 1600.04 772.072 1598.46 776.172 1596.56L778.716 1599.62C774.334 1607.83 767.831 1614.12 759.208 1618.47C750.585 1622.82 739.806 1625 726.871 1625ZM771.507 1622.89C771.507 1620.79 771.789 1618.4 772.355 1615.73C772.92 1613.06 773.627 1610.29 774.475 1607.41C775.394 1604.46 776.278 1601.69 777.126 1599.09H735.777V1588.03H792.287V1622.89H771.507Z" fill="black"/>
<path d="M807.113 1622.89V1555.49H889.069C895.501 1555.49 901.261 1556.23 906.35 1557.7C911.51 1559.11 915.574 1561.49 918.543 1564.86C921.582 1568.23 923.102 1572.83 923.102 1578.66C923.102 1582.52 922.395 1585.72 920.981 1588.24C919.568 1590.77 917.624 1592.74 915.15 1594.14C912.676 1595.55 909.849 1596.56 906.668 1597.2C903.488 1597.83 900.166 1598.21 896.702 1598.35L888.963 1596.88C897.374 1596.95 903.841 1597.3 908.365 1597.93C912.959 1598.56 916.14 1599.72 917.907 1601.41C919.744 1603.02 920.663 1605.38 920.663 1608.46V1622.89H894.158V1611.62C894.158 1609.52 893.734 1607.94 892.885 1606.89C892.108 1605.76 890.341 1604.99 887.584 1604.57C884.898 1604.15 880.728 1603.94 875.074 1603.94H833.619V1622.89H807.113ZM833.619 1586.35H889.069C891.189 1586.35 892.956 1586 894.37 1585.29C895.854 1584.59 896.596 1583.26 896.596 1581.29C896.596 1579.47 895.854 1578.24 894.37 1577.61C892.956 1576.9 891.189 1576.55 889.069 1576.55H833.619V1586.35Z" fill="black"/>
<path d="M1000.86 1625C985.452 1625 973.048 1623.67 963.647 1621C954.246 1618.26 947.39 1614.26 943.079 1608.99C938.838 1603.66 936.717 1597.06 936.717 1589.19C936.717 1581.33 938.838 1574.76 943.079 1569.5C947.39 1564.16 954.246 1560.16 963.647 1557.49C973.048 1554.75 985.452 1553.38 1000.86 1553.38C1016.27 1553.38 1028.67 1554.75 1038.07 1557.49C1047.48 1560.16 1054.3 1564.16 1058.54 1569.5C1062.85 1574.76 1065 1581.33 1065 1589.19C1065 1597.06 1062.85 1603.66 1058.54 1608.99C1054.3 1614.26 1047.48 1618.26 1038.07 1621C1028.67 1623.67 1016.27 1625 1000.86 1625ZM1000.86 1604.99C1008.14 1604.99 1014.43 1604.57 1019.73 1603.73C1025.03 1602.81 1029.13 1601.23 1032.03 1598.99C1034.93 1596.67 1036.38 1593.4 1036.38 1589.19C1036.38 1584.98 1034.93 1581.75 1032.03 1579.5C1029.13 1577.19 1025.03 1575.61 1019.73 1574.76C1014.43 1573.85 1008.14 1573.39 1000.86 1573.39C993.581 1573.39 987.184 1573.85 981.671 1574.76C976.228 1575.61 971.952 1577.19 968.842 1579.5C965.803 1581.75 964.283 1584.98 964.283 1589.19C964.283 1593.4 965.803 1596.67 968.842 1598.99C971.952 1601.23 976.228 1602.81 981.671 1603.73C987.184 1604.57 993.581 1604.99 1000.86 1604.99Z" fill="black"/>
<path d="M1174.11 1584.45V1555.49H1200.61V1589.19C1200.61 1595.16 1199.48 1600.25 1197.22 1604.46C1195.03 1608.61 1191.96 1612.05 1188 1614.78C1184.04 1617.45 1179.48 1619.52 1174.32 1621C1169.16 1622.47 1163.61 1623.49 1157.68 1624.05C1151.81 1624.68 1145.84 1625 1139.76 1625C1133.33 1625 1127.11 1624.68 1121.1 1624.05C1115.09 1623.49 1109.51 1622.47 1104.35 1621C1099.26 1619.52 1094.8 1617.45 1090.99 1614.78C1087.17 1612.05 1084.17 1608.61 1081.98 1604.46C1079.86 1600.25 1078.8 1595.16 1078.8 1589.19V1555.49H1105.3V1584.45C1105.3 1590.07 1106.68 1594.35 1109.44 1597.3C1112.19 1600.25 1116.12 1602.29 1121.2 1603.41C1126.36 1604.46 1132.55 1604.99 1139.76 1604.99C1146.76 1604.99 1152.83 1604.46 1157.99 1603.41C1163.15 1602.29 1167.11 1600.25 1169.87 1597.3C1172.7 1594.35 1174.11 1590.07 1174.11 1584.45Z" fill="black"/>
<path d="M1240.06 1605.52V1587.09H1292.97C1295.09 1587.09 1296.85 1586.77 1298.27 1586.14C1299.75 1585.44 1300.49 1584 1300.49 1581.82C1300.49 1579.57 1299.75 1578.13 1298.27 1577.5C1296.85 1576.87 1295.09 1576.55 1292.97 1576.55H1241.76V1622.89H1215.25V1555.49H1288.83C1294.13 1555.49 1299.08 1555.88 1303.68 1556.65C1308.34 1557.35 1312.4 1558.65 1315.87 1560.54C1319.33 1562.44 1322.05 1565.11 1324.03 1568.55C1326.01 1571.99 1327 1576.41 1327 1581.82C1327 1587.23 1326.01 1591.51 1324.03 1594.67C1322.05 1597.83 1319.33 1600.18 1315.87 1601.72C1312.4 1603.27 1308.34 1604.29 1303.68 1604.78C1299.08 1605.27 1294.13 1605.52 1288.83 1605.52H1240.06Z" fill="black"/>
<path d="M407 939.639V904.328C439.042 904.328 461.395 897.684 474.059 884.395C486.914 871.105 493.341 848.894 493.341 817.759V726.634C493.341 700.436 495.836 677.75 500.824 658.575C506.005 639.401 514.351 623.549 525.863 611.02C537.376 598.49 552.725 589.188 571.912 583.113C591.099 577.038 614.795 574 643 574V629.814C620.743 629.814 603.187 633.231 590.332 640.066C577.668 646.9 568.65 657.531 563.278 671.959C558.098 686.198 555.507 704.423 555.507 726.634V840.541C555.507 855.348 553.493 868.827 549.463 880.977C545.626 893.127 538.431 903.569 527.878 912.302C517.325 921.034 502.263 927.774 482.693 932.52C463.314 937.266 438.083 939.639 407 939.639ZM643 1303C614.795 1303 591.099 1299.96 571.912 1293.89C552.725 1287.81 537.376 1278.51 525.863 1265.98C514.351 1253.45 506.005 1237.6 500.824 1218.42C495.836 1199.25 493.341 1176.56 493.341 1150.37V1059.24C493.341 1028.11 486.914 1005.89 474.059 992.605C461.395 979.316 439.042 972.672 407 972.672V937.361C438.083 937.361 463.314 939.734 482.693 944.48C502.263 949.226 517.325 955.966 527.878 964.698C538.431 973.431 545.626 983.873 549.463 996.023C553.493 1008.17 555.507 1021.65 555.507 1036.46V1150.37C555.507 1172.58 558.098 1190.8 563.278 1205.04C568.65 1219.28 577.668 1229.82 590.332 1236.65C603.187 1243.67 620.743 1247.19 643 1247.19V1303ZM407 972.672V904.328H474.922V972.672H407Z" fill="black"/>
<path d="M1659 937.361V972.672C1626.96 972.672 1604.51 979.316 1591.65 992.605C1578.99 1005.89 1572.66 1028.11 1572.66 1059.24V1150.37C1572.66 1176.56 1570.07 1199.25 1564.89 1218.42C1559.9 1237.6 1551.65 1253.45 1540.14 1265.98C1528.62 1278.51 1513.27 1287.81 1494.09 1293.89C1474.9 1299.96 1451.2 1303 1423 1303V1247.19C1445.26 1247.19 1462.72 1243.67 1475.38 1236.65C1488.24 1229.82 1497.25 1219.28 1502.43 1205.04C1507.81 1190.8 1510.49 1172.58 1510.49 1150.37V1036.46C1510.49 1021.65 1512.41 1008.17 1516.25 996.023C1520.28 983.873 1527.57 973.431 1538.12 964.698C1548.67 955.966 1563.64 949.226 1583.02 944.48C1602.59 939.734 1627.92 937.361 1659 937.361ZM1423 574C1451.2 574 1474.9 577.038 1494.09 583.113C1513.27 589.188 1528.62 598.49 1540.14 611.02C1551.65 623.549 1559.9 639.401 1564.89 658.575C1570.07 677.75 1572.66 700.436 1572.66 726.634V817.759C1572.66 848.894 1578.99 871.105 1591.65 884.395C1604.51 897.684 1626.96 904.328 1659 904.328V939.639C1627.92 939.639 1602.59 937.266 1583.02 932.52C1563.64 927.774 1548.67 921.034 1538.12 912.302C1527.57 903.569 1520.28 893.127 1516.25 880.977C1512.41 868.827 1510.49 855.348 1510.49 840.541V726.634C1510.49 704.423 1507.81 686.198 1502.43 671.959C1497.25 657.531 1488.24 646.9 1475.38 640.066C1462.72 633.231 1445.26 629.814 1423 629.814V574ZM1659 904.328V972.672H1591.08V904.328H1659Z" fill="black"/>
<path fill-rule="evenodd" clip-rule="evenodd" d="M1252.84 584.873H734.066L709.796 1017.95C704.353 1115.07 701.632 1163.63 718.837 1200.97C733.959 1233.79 759.423 1260.74 791.323 1277.68C827.616 1296.96 876.221 1296.96 973.433 1296.96H973.434H1009.41C1105.81 1296.96 1154.01 1296.96 1190.14 1277.9C1221.9 1261.14 1247.33 1234.47 1262.58 1201.95C1279.92 1164.94 1277.67 1116.77 1273.18 1020.41L1272.83 1013.04C1281.63 1012.87 1289.69 1012.55 1297 1011.95C1313.48 1010.6 1329.42 1007.65 1344.63 999.872C1367.63 988.117 1386.32 969.36 1398.04 946.289C1405.79 931.029 1408.73 915.039 1410.08 898.508C1411.36 882.754 1411.36 863.551 1411.36 840.924V833.707C1411.36 811.08 1411.36 791.877 1410.08 776.123C1408.73 759.593 1405.79 743.602 1398.04 728.342C1386.32 705.272 1367.63 686.515 1344.63 674.759C1329.42 666.984 1313.48 664.032 1297 662.682C1281.3 661.395 1280.25 661.395 1257.72 661.396H1257.7H1256.41L1252.84 584.873ZM1259.9 736.073L1269.35 938.458C1277.84 938.323 1284.85 938.064 1290.94 937.565C1302.82 936.591 1307.88 934.895 1310.85 933.374C1319.85 928.774 1327.17 921.434 1331.75 912.406C1333.27 909.421 1334.96 904.346 1335.93 892.431C1336.94 880.08 1336.97 863.948 1336.97 839.448V835.183C1336.97 810.683 1336.94 794.552 1335.93 782.201C1334.96 770.285 1333.27 765.21 1331.75 762.225C1327.17 753.197 1319.85 745.858 1310.85 741.258C1307.88 739.737 1302.82 738.04 1290.94 737.067C1282.72 736.393 1272.83 736.156 1259.9 736.073Z" fill="#F7C888"/>
<mask id="mask0_106_21" style="mask-type:alpha" maskUnits="userSpaceOnUse" x="748" y="585" width="486" height="674">
<path d="M772.187 585H1214.91L1232.04 1035.43C1235 1113.39 1236.49 1152.38 1222.23 1182.29C1209.7 1208.58 1188.98 1230.1 1163.17 1243.62C1133.82 1259 1094.8 1259 1016.77 1259H965.888C887.159 1259 847.794 1259 818.301 1243.44C792.375 1229.76 771.624 1207.99 759.197 1181.45C745.061 1151.25 746.945 1111.93 750.711 1033.31L772.187 585Z" fill="#FBCE59"/>
</mask>
<g mask="url(#mask0_106_21)">
<path d="M746 887H1249V1656H746V887Z" fill="#FBCE59"/>
<path d="M979 1259H1024.86C1099.99 1259 1137.55 1259 1165.81 1244.14C1190.65 1231.08 1210.61 1210.28 1222.67 1184.87C1236.39 1155.97 1234.97 1118.3 1232.11 1042.97L1226.2 887H1142.33L1149.68 1081.09C1152.03 1143.13 1153.21 1174.15 1141.9 1197.95C1131.97 1218.88 1115.54 1236.01 1095.08 1246.76C1071.81 1259 1040.87 1259 979 1259Z" fill="#F1A438"/>
<path d="M891 891.5C891 928.227 861.003 958 824 958C786.997 958 757 928.227 757 891.5C757 854.773 786.997 825 824 825C861.003 825 891 854.773 891 891.5Z" fill="white"/>
<path d="M1227 899.5C1227 934.57 1198.35 963 1163 963C1127.65 963 1099 934.57 1099 899.5C1099 864.43 1127.65 836 1163 836C1198.35 836 1227 864.43 1227 899.5Z" fill="white"/>
<path d="M1064 897C1064 936.765 1031.76 969 992 969C952.236 969 920 936.765 920 897C920 857.236 952.236 825 992 825C1031.76 825 1064 857.236 1064 897Z" fill="white"/>
<path d="M1156 886C1156 925.765 1123.99 958 1084.5 958C1045.01 958 1013 925.765 1013 886C1013 846.236 1045.01 814 1084.5 814C1123.99 814 1156 846.236 1156 886Z" fill="white"/>
<path d="M992 912C992 960.049 952.825 999 904.5 999C856.175 999 817 960.049 817 912C817 863.951 856.175 825 904.5 825C952.825 825 992 863.951 992 912Z" fill="white"/>
<path opacity="0.4" fill-rule="evenodd" clip-rule="evenodd" d="M848.598 738.032C865.591 738.8 878.74 753.115 877.968 770.006L862.568 1106.77C861.795 1123.67 847.394 1136.74 830.402 1135.97C813.409 1135.2 800.26 1120.88 801.032 1103.99L816.432 767.226C817.205 750.335 831.606 737.264 848.598 738.032Z" fill="white"/>
</g>
</svg>
